<svg xmlns="http://www.w3.org/2000/svg" width="381" height="150" viewBox="0 0 381 150" version="1.1"><path d="M 73.709 0.624 C 73.319 1.014, 73 1.944, 73 2.691 C 73 4.160, 65.469 16.491, 63.007 19.055 C 62.178 19.918, 60.150 22.950, 58.500 25.792 C 56.850 28.635, 55.199 30.969, 54.832 30.980 C 54.464 30.991, 53.250 29.522, 52.133 27.716 C 51.017 25.910, 48.978 23.122, 47.603 21.521 C 46.227 19.920, 43.652 15.755, 41.880 12.265 C 38.579 5.759, 36.779 4.777, 34.607 8.292 C 33.719 9.730, 33.910 10.422, 35.573 11.792 C 37.792 13.620, 44 23.060, 44 24.605 C 44 25.117, 45.141 27.215, 46.536 29.268 C 49.027 32.933, 49.034 33, 46.959 33 C 44.245 33, 39 38.221, 39 40.923 C 39 42.936, 39.475 43, 54.500 43 L 70 43 70 40.455 C 70 37.353, 65.881 33, 62.947 33 L 60.802 33 63.062 29.250 C 64.304 27.188, 66.844 22.616, 68.705 19.092 C 72.525 11.858, 75.764 7.006, 77.822 5.434 C 79.776 3.941, 78.888 0.559, 76.449 0.208 C 75.332 0.047, 74.099 0.235, 73.709 0.624 M 14 47.594 C 8.991 49.764, 5.102 53.750, 2.383 59.500 C 0.103 64.324, 0.019 65.350, 0.010 88.628 C -0 113.958, 0.225 115.523, 4.885 122.414 C 7.858 126.811, 14.596 130.878, 20.124 131.611 C 22.806 131.967, 25 132.315, 25 132.385 C 25 132.456, 24.513 134.085, 23.917 136.007 C 21.391 144.155, 21.214 145.860, 22.674 147.945 C 23.575 149.231, 25.221 150, 27.073 150 C 29.707 150, 30.663 149.012, 35.766 141.022 L 41.500 132.044 54.624 132.022 L 67.747 132 73.124 140.169 C 79.192 149.390, 80.590 150.571, 84.330 149.632 C 87.874 148.743, 88.557 145.428, 86.591 138.665 C 85.716 135.655, 85 132.981, 85 132.724 C 85 132.466, 86.841 131.961, 89.092 131.601 C 97.160 130.311, 103.394 125.652, 107.786 117.630 C 109.278 114.906, 109.500 111.196, 109.500 89 L 109.500 63.500 106.407 58 C 104.108 53.912, 101.937 51.666, 97.951 49.250 L 92.588 46 55.044 46.039 C 23.763 46.072, 16.916 46.331, 14 47.594 M 16.299 57.960 C 10.196 61.681, 9.866 63.412, 10.200 89.969 L 10.500 113.843 13 116.516 C 18.112 121.983, 18.240 122, 54.482 122 C 91.617 122, 92.851 121.822, 97.101 115.863 C 99.425 112.605, 99.510 111.831, 99.828 91 C 100.199 66.746, 99.683 63.685, 94.453 59.093 L 90.930 56 55.215 56.004 C 21.556 56.007, 19.316 56.120, 16.299 57.960 M 45.500 67.900 C 33.638 73.404, 28.857 86.708, 34.436 98.690 C 41.035 112.863, 60.457 115.854, 71.136 104.342 C 81.649 93.008, 78.623 75.403, 64.973 68.486 L 59.927 65.930 58.532 69.270 C 57.764 71.107, 56.837 73.801, 56.472 75.255 C 55.816 77.871, 55.873 77.903, 61.777 78.200 L 67.746 78.500 59.894 90.500 C 55.575 97.100, 52.038 102.050, 52.033 101.500 C 52.029 100.950, 52.920 97.647, 54.013 94.161 C 55.106 90.674, 56 87.412, 56 86.911 C 56 86.410, 53.252 86, 49.893 86 C 44.472 86, 43.866 85.804, 44.500 84.250 C 46.922 78.312, 50.762 66.004, 50.187 66.022 C 49.809 66.034, 47.700 66.879, 45.500 67.900" stroke="none" fill="#e7414b" fill-rule="evenodd"/><path d="M 16.299 57.960 C 10.196 61.681, 9.866 63.412, 10.200 89.969 L 10.500 113.843 13 116.516 C 18.112 121.983, 18.240 122, 54.482 122 C 91.617 122, 92.851 121.822, 97.101 115.863 C 99.425 112.605, 99.510 111.831, 99.828 91 C 100.199 66.746, 99.683 63.685, 94.453 59.093 L 90.930 56 55.215 56.004 C 21.556 56.007, 19.316 56.120, 16.299 57.960 M 188.105 63.189 C 187.073 65.560, 181.240 78.251, 175.142 91.391 C 169.045 104.531, 164.295 115.668, 164.587 116.141 C 164.879 116.613, 168.249 117, 172.075 117 L 179.032 117 180.701 113.500 L 182.370 110 193.620 110 L 204.871 110 206.136 113.500 L 207.402 117 214.642 117 C 218.624 117, 222.124 116.608, 222.420 116.129 C 222.716 115.650, 217.129 102.712, 210.005 87.379 L 197.050 59.500 193.516 59.189 C 190.205 58.898, 189.863 59.151, 188.105 63.189 M 279.415 59.917 C 279.187 60.146, 279 63.183, 279 66.667 L 279 73 286 73 L 293 73 293 95 L 293 117 300.500 117 L 308 117 308 95 L 308 73 315 73 L 322 73 322 66.539 L 322 60.077 300.915 59.789 C 289.318 59.630, 279.643 59.688, 279.415 59.917 M 126 88.500 L 126 117 144 117 L 162 117 162 110 L 162 103 152 103 L 142 103 142 81.500 L 142 60 134 60 L 126 60 126 88.500 M 229 88.500 L 229 117 244.788 117 C 259.173 117, 260.972 116.800, 265.034 114.750 C 270.695 111.892, 273.961 106.402, 273.984 99.700 C 274.001 94.612, 272.040 89.682, 269.416 88.213 C 268.001 87.421, 268.055 86.959, 269.912 83.913 C 273.414 78.169, 272.363 71.132, 267.186 65.661 C 262.282 60.478, 260.330 60, 244.050 60 L 229 60 229 88.500 M 326 61.382 C 326 62.990, 348.708 114.891, 350.225 116.750 C 350.786 117.438, 352.260 118, 353.500 118 C 354.740 118, 356.210 117.438, 356.766 116.750 C 358.085 115.118, 381 62.471, 381 61.072 C 381 60.406, 378.206 60, 373.631 60 L 366.263 60 360.503 74.250 C 357.335 82.088, 354.437 89.078, 354.062 89.785 C 353.670 90.526, 350.673 84.495, 346.982 75.535 L 340.583 60 333.292 60 C 327.754 60, 326 60.332, 326 61.382 M 45.500 67.900 C 33.638 73.404, 28.857 86.708, 34.436 98.690 C 41.035 112.863, 60.457 115.854, 71.136 104.342 C 81.649 93.008, 78.623 75.403, 64.973 68.486 L 59.927 65.930 58.532 69.270 C 57.764 71.107, 56.837 73.801, 56.472 75.255 C 55.816 77.871, 55.873 77.903, 61.777 78.200 L 67.746 78.500 59.894 90.500 C 55.575 97.100, 52.038 102.050, 52.033 101.500 C 52.029 100.950, 52.920 97.647, 54.013 94.161 C 55.106 90.674, 56 87.412, 56 86.911 C 56 86.410, 53.252 86, 49.893 86 C 44.472 86, 43.866 85.804, 44.500 84.250 C 46.922 78.312, 50.762 66.004, 50.187 66.022 C 49.809 66.034, 47.700 66.879, 45.500 67.900 M 244 77.500 L 244 82 248.929 82 C 252.076 82, 254.425 81.432, 255.429 80.429 C 259.172 76.685, 255.948 73, 248.929 73 L 244 73 244 77.500 M 191.519 87.528 C 187.577 96.775, 187.392 96, 193.538 96 L 199.027 96 197.640 92.680 C 196.877 90.854, 195.568 88.054, 194.732 86.458 L 193.212 83.557 191.519 87.528 M 244 98.544 L 244 103.088 251.250 102.794 C 258.458 102.502, 258.502 102.483, 258.836 99.549 C 259.298 95.490, 256.874 94, 249.809 94 L 244 94 244 98.544" stroke="none" fill="#14132b" fill-rule="evenodd"/></svg>